# xmcd
#
# Track frame offsets: 
#        150
#        4387
#        29932
#        49819
#        75066
#        100315
#        121064
#        151913
#        165850
#        201869
#        220108
#        256731
#        290322
#        331928
#
# Disc length: 4540 seconds
#
# Revision: 0
# Processed by: cddbd v1.5.2PL0 Copyright (c) Steve Scherf et al.
# Submitted via: ExactAudioCopy v0.99pb5
#
DISCID=af11ba0e
DTITLE=Elvis Presley  - FTD 73-2 - Love Letters From Elvis - CD 2  FLA
DTITLE=C
DYEAR=1900
DGENRE=
TTITLE0=Radio Commercial
TTITLE1=The Sound Of Your Cry Takes 4, 5, 6
TTITLE2=Cindy, Cindy Takes 2, 3 (Undubbed Master)
TTITLE3=Got My Mojo Working , Keep Your Hands Off It Take 1 (Undubbed 
TTITLE3=Master)
TTITLE4=I'll Never Know Takes 2, 3
TTITLE5=It Ain't No Big Thing (But It's Growing) Takes 3, 4, 5, 6
TTITLE6=This Is Our Dance Takes 6, 7, 9, 11 (Undubbed Master)
TTITLE7=Life Take 10
TTITLE8=Heart Of Rome Takes 2, 3 (Undubbed Master)
TTITLE9=Love Letters Takes 3, 1
TTITLE10=If I Were You Takes 2, 3, 4, 5
TTITLE11=Only Believe Takes 1, 2, 3, 4 (Undubbed Master)
TTITLE12=Sylvia Takes 1, 2, 3, 4, 9
TTITLE13=Rags To Riches Take 3
EXTD=
EXTT0=
EXTT1=
EXTT2=
EXTT3=
EXTT4=
EXTT5=
EXTT6=
EXTT7=
EXTT8=
EXTT9=
EXTT10=
EXTT11=
EXTT12=
EXTT13=
PLAYORDER=
